<?xml version="1.0" encoding="utf-8"?>
<!DOCTYPE svg
  PUBLIC '-//W3C//DTD SVG 1.0//EN'
  'http://www.w3.org/TR/2001/REC-SVG-20010904/DTD/svg10.dtd'>
<svg width="770" height="350" preserveAspectRatio="xMinYMin meet" viewBox="0 0 770 350" xmlns="http://www.w3.org/2000/svg" version="1.0" fill-rule="evenodd" xmlns:xlink="http://www.w3.org/1999/xlink">
	<title>...</title>
	<desc>...</desc>
	<clipPath id="clip">
		<rect x="0" y="0" width="770" height="350"/>
	</clipPath>
	<g id="group" transform="scale(1,-1) translate(0,-350)" style="clip-path: url(#clip)">
		<g transform="">
			<rect x="0" y="289" width="770" height="61" style="stroke: rgb(9%,16%,27%); stroke-linecap: butt; stroke-width: 0.8; fill: rgb(95%,96%,98%); fill-rule: evenodd;"/>
			<g transform=" matrix(0.666667,0,0,0.666667,12,305)">
				<g transform="">
					<g transform=" matrix(0.75,0,0,-0.75,0,48)">
						<g transform="">
							<g transform="">
								<rect x="0.0" y="0.0" width="64.0" height="64.0" style="stroke: none; stroke-linecap: butt; stroke-width: 1; fill: rgb(90%,8%,48%); fill-rule: evenodd;"/>
							</g>
							<g transform="">
								<path d="M 44 51.0054 L 50 51.0054 L 50 45.0216 L 44 45.0216 L 44 51.0054 Z M 29 51.0054 L 35 51.0054 L 35 45.0216 L 29 45.0216 L 29 51.0054 Z M 14 51.0054 L 20 51.0054 L 20 45.0216 L 14 45.0216 L 14 51.0054 Z M 51 43.027 L 48 43.027 L 48 39.0378 C 48 38.487291 47.552 38.0405 47 38.0405 L 33 38.0405 L 33 35.0486 L 31 35.0486 L 31 38.0405 L 17 38.0405 C 16.447 38.0405 16 38.487291 16 39.0378 L 16 43.027 L 13 43.027 C 12.447 43.027 12 43.47379 12 44.0243 L 12 52.0027 C 12 52.55321 12.447 53 13 53 L 21 53 C 21.552 53 22 52.55321 22 52.0027 L 22 44.0243 C 22 43.47379 21.552 43.027 21 43.027 L 18 43.027 L 18 40.0351 L 31 40.0351 L 31 43.027 L 28 43.027 C 27.447 43.027 27 43.47379 27 44.0243 L 27 52.0027 C 27 52.55321 27.447 53 28 53 L 36 53 C 36.552 53 37 52.55321 37 52.0027 L 37 44.0243 C 37 43.47379 36.552 43.027 36 43.027 L 33 43.027 L 33 40.0351 L 46 40.0351 L 46 43.027 L 43 43.027 C 42.447 43.027 42 43.47379 42 44.0243 L 42 52.0027 C 42 52.55321 42.447 53 43 53 L 51 53 C 51.552 53 52 52.55321 52 52.0027 L 52 44.0243 C 52 43.47379 51.552 43.027 51 43.027 L 51 43.027 Z M 32 14.138211 L 38.949 17.988786 L 32 21.881248 L 25.05 17.988786 L 32 14.138211 Z M 33 31.340639 L 33 23.608572 L 40 19.688186 L 40 27.376371 L 33 31.340639 Z M 24 19.688186 L 31 23.608572 L 31 31.340639 L 24 27.376371 L 24 19.688186 Z M 22.505 28.824451 L 31.505 33.921651 C 31.659 34.008416 31.83 34.0513 32 34.0513 C 32.17 34.0513 32.34 34.008416 32.494 33.921651 L 41.494 28.824451 C 41.806 28.646932 42 28.315828 42 27.9568 L 42 17.9838 C 42 17.62178 41.802 17.287685 41.485 17.11216 L 32.485 12.12566 C 32.184 11.958113 31.815 11.958113 31.514 12.12566 L 22.514 17.11216 C 22.197 17.287685 22 17.62178 22 17.9838 L 22 27.9568 C 22 28.315828 22.193 28.646932 22.505 28.824451 L 22.505 28.824451 Z " style="stroke: none; stroke-linecap: butt; stroke-width: 1; fill: rgb(100%,100%,100%); fill-rule: evenodd;"/>
							</g>
						</g>
					</g>
				</g>
			</g>
			<text x="53" y="328" style="font-family: Helvetica-Bold; font-size: 12px;fill: rgb(9%,16%,27%); stroke:none;" transform="translate(0,656) scale(1,-1)">AWS Organizations</text>
			<text x="53" y="312.6" style="font-family: Helvetica; font-size: 8.4px;fill: rgb(9%,16%,27%); stroke:none;" transform="translate(0,625) scale(1,-1)">Management account | billing + governance</text>
			<g transform=" matrix(0.666667,0,0,0.666667,312,305)">
				<g transform="">
					<g transform=" matrix(0.75,0,0,-0.75,0,48)">
						<g transform="">
							<g transform="">
								<rect x="0.0" y="0.0" width="64.0" height="64.0" style="stroke: none; stroke-linecap: butt; stroke-width: 1; fill: rgb(90%,8%,48%); fill-rule: evenodd;"/>
							</g>
							<g transform="">
								<path d="M 16.979 36.394 L 21.221 40.636 L 22.635 39.222 L 18.393 34.98 L 16.979 36.394 Z M 24.05 43.465 L 28.292 47.707 L 29.707 46.293 L 25.464 42.051 L 24.05 43.465 Z M 42.05 25.465 L 46.292 29.707 L 47.707 28.293 L 43.464 24.051 L 42.05 25.465 Z M 40.635 21.222 L 36.393 16.98 L 34.979 18.394 L 39.221 22.636 L 40.635 21.222 Z M 41.364 39.222 L 42.778 40.636 L 47.02 36.394 L 45.606 34.98 L 41.364 39.222 Z M 34.292 46.293 L 35.707 47.707 L 39.949 43.465 L 38.535 42.051 L 34.292 46.293 Z M 29.02 18.394 L 27.606 16.98 L 23.364 21.222 L 24.778 22.636 L 29.02 18.394 Z M 21.949 25.465 L 20.535 24.051 L 16.292 28.293 L 17.707 29.707 L 21.949 25.465 Z M 35.638 33 L 33 33 L 33 35.637 C 33.614 35.469 34.197 35.161 34.678 34.68 L 34.678 34.679 C 35.15 34.207 35.467 33.627 35.638 33 L 35.638 33 Z M 31 35.636 L 31 33 L 28.361 33 C 28.532 33.627 28.849 34.207 29.321 34.679 C 29.802 35.161 30.385 35.469 31 35.636 L 31 35.636 Z M 28.361 31 L 31 31 L 31 28.364 C 30.385 28.532 29.802 28.84 29.321 29.321 C 28.849 29.793 28.533 30.373 28.361 31 L 28.361 31 Z M 33 28.364 L 33 31 L 35.638 31 C 35.466 30.373 35.15 29.793 34.678 29.321 C 34.197 28.84 33.614 28.532 33 28.364 L 33 28.364 Z M 44.414 32 L 40.707 35.707 L 39.292 34.293 L 40.585 33 L 37.691 33 C 37.489 34.165 36.946 35.241 36.092 36.094 C 35.239 36.947 34.164 37.49 33 37.692 L 33 40.586 L 34.292 39.293 L 35.707 40.707 L 32 44.415 L 28.292 40.707 L 29.707 39.293 L 31 40.586 L 31 37.692 C 29.835 37.49 28.76 36.947 27.907 36.094 C 27.053 35.241 26.51 34.165 26.308 33 L 23.414 33 L 24.707 34.293 L 23.292 35.707 L 19.585 32 L 23.292 28.293 L 24.707 29.707 L 23.414 31 L 26.308 31 C 26.511 29.835 27.053 28.76 27.907 27.907 C 28.76 27.054 29.835 26.511 31 26.309 L 31 23.415 L 29.707 24.707 L 28.292 23.293 L 32 19.586 L 35.707 23.293 L 34.292 24.707 L 33 23.415 L 33 26.309 C 34.164 26.511 35.239 27.054 36.092 27.907 C 36.946 28.76 37.488 29.835 37.691 31 L 40.585 31 L 39.292 29.707 L 40.707 28.293 L 44.414 32 Z M 30 50 L 32 52 L 34 50 L 32 48 L 30 50 Z M 12 32 L 14 34 L 16 32 L 14 30 L 12 32 Z M 50 30 L 48 32 L 50 34 L 52 32 L 50 30 Z M 32 16 L 30 14 L 32 12 L 34 14 L 32 16 Z " style="stroke: none; stroke-linecap: butt; stroke-width: 1; fill: rgb(100%,100%,100%); fill-rule: evenodd;"/>
							</g>
						</g>
					</g>
				</g>
			</g>
			<text x="352" y="329" style="font-family: Helvetica-Bold; font-size: 11px;fill: rgb(9%,16%,27%); stroke:none;" transform="translate(0,658) scale(1,-1)">AWS Control Tower</text>
			<text x="352" y="312.6" style="font-family: Helvetica; font-size: 8.4px;fill: rgb(9%,16%,27%); stroke:none;" transform="translate(0,625) scale(1,-1)">Landing zone + enrolled OUs + controls</text>
			<g transform=" matrix(0.666667,0,0,0.666667,582,305)">
				<g transform="">
					<g transform=" matrix(0.75,0,0,-0.75,0,48)">
						<g transform="">
							<g transform="">
								<rect x="0.0" y="0.0" width="64.0" height="64.0" style="stroke: none; stroke-linecap: butt; stroke-width: 1; fill: rgb(86%,20%,29%); fill-rule: evenodd;"/>
							</g>
							<g transform="">
								<path d="M 52.032 49.235015 L 41.44 38.643015 C 41.134 38.337015 41.059 37.867015 41.257 37.482015 C 42.617 34.818015 42.117 31.614015 40.013 29.509015 C 38.498 27.994015 36.408 27.273015 34.274 27.530015 C 32.141 27.787015 30.261 29.020015 29.114 30.911015 C 27.77 33.127015 27.83 35.969015 29.266 38.153015 C 31.253 41.175015 35.031 42.155015 38.247 40.487015 C 38.634 40.286015 39.106 40.358015 39.415 40.668015 L 41.208 42.460015 C 41.415 42.667015 41.521 42.955015 41.498 43.247015 L 41.336 45.259015 L 43.347 45.097015 C 43.636 45.068015 43.928 45.179015 44.135 45.387015 L 45.11 46.362015 C 45.317 46.569015 45.424 46.858015 45.4 47.150015 L 45.238 49.161015 L 47.25 49.000015 C 47.54 48.968015 47.83 49.082015 48.037 49.289015 L 49.5 50.752015 L 52.011 51.138015 L 52.032 49.235015 Z M 54.036062 48.836015 L 54 52.311015 C 53.997 52.601015 53.868 52.876015 53.647 53.063015 C 53.466 53.218015 53.235 53.301015 53 53.301015 C 52.949 53.301015 52.898 53.297015 52.848 53.289015 L 48.873 52.679015 C 48.662 52.647015 48.468 52.548015 48.317 52.398015 L 46.949 51.030015 L 44.227 51.249015 C 43.937 51.272015 43.647 51.166015 43.44 50.959015 C 43.233 50.752015 43.127 50.464015 43.15 50.172015 L 43.369 47.450015 L 43.047 47.128015 L 40.325 47.346015 C 40.027 47.372015 39.746 47.264015 39.538 47.057015 C 39.331 46.850015 39.224 46.562015 39.248 46.270015 L 39.467 43.548015 L 38.496 42.577015 C 34.555 44.230015 29.977 42.877015 27.595 39.252015 C 25.737 36.427015 25.662 32.746015 27.403 29.874015 C 28.871 27.454015 31.288 25.876015 34.035 25.544015 C 36.776 25.214015 39.475 26.142015 41.428 28.095015 C 43.972 30.640015 44.702 34.427015 43.346 37.721015 L 53.743 48.118015 C 53.933 48.308015 54.039 48.567015 54.036062 48.836015 L 54.036062 48.836015 Z M 36.258 33.413015 C 35.981 33.137015 35.619 33.000015 35.258 33.000015 C 34.895 33.000015 34.533 33.137015 34.257 33.413015 C 33.706 33.964015 33.706 34.862015 34.257 35.414015 C 34.809 35.965015 35.707 35.965015 36.258 35.413015 C 36.809 34.862015 36.809 33.964015 36.258 33.413015 L 36.258 33.413015 Z M 37.672 31.999015 C 38.317 32.644015 38.672 33.502015 38.672 34.414015 C 38.672 35.325015 38.317 36.183015 37.672 36.828015 L 37.672 36.828015 C 37.006 37.493015 36.132 37.826015 35.258 37.826015 C 34.383 37.826015 33.509 37.493015 32.843 36.828015 C 31.512 35.496015 31.512 33.331015 32.843 32.000015 C 34.172 30.668015 36.339 30.666015 37.672 31.999015 L 37.672 31.999015 Z M 19.002 36.993015 L 24 36.993015 L 24 38.993015 L 19 38.993015 C 14.116 38.983015 10.256 35.767015 10.019 31.514015 C 10.009 31.325015 10 31.131015 10 30.936015 C 10 25.734015 13.52 23.723015 15.71 22.977015 C 15.701 22.792015 15.696 22.607015 15.696 22.419015 C 15.696 18.079015 18.675 13.585015 22.626 11.965015 C 27.233 10.062015 32.115 11.008015 35.682 14.498015 C 36.569 15.355015 37.69 16.616015 38.521 18.153015 C 39.39 17.448015 40.367 17.102015 41.476 17.102015 C 43.805 17.102015 46.413 18.979015 46.928 23.076015 C 51.622 24.217015 54 26.904015 54 31.069015 C 54 34.154015 52.814 38.032015 47.165 38.980015 L 46.835 37.007015 C 50.358 36.416015 52 34.529015 52 31.069015 C 52 27.688015 50.031 25.720015 45.803 24.876015 C 45.358 24.787015 45.028 24.408015 45.002 23.954015 C 44.834 21.097015 43.384 19.102015 41.476 19.102015 C 40.517 19.102015 39.76 19.537015 39.019 20.513015 C 38.799 20.804015 38.44 20.956015 38.074 20.898015 C 37.712 20.844015 37.409 20.596015 37.283 20.253015 C 36.618 18.430015 35.287 16.897015 34.288 15.932015 C 31.307 13.014015 27.234 12.224015 23.386 13.815015 C 20.194 15.124015 17.696 18.902015 17.696 22.419015 C 17.696 22.811015 17.719 23.191015 17.767 23.578015 C 17.771 23.613015 17.774 23.648015 17.775 23.683015 L 17.775 23.685015 L 17.775 23.686015 L 17.775 23.687015 L 17.775 23.688015 L 17.775 23.689015 L 17.775 23.690015 L 17.775 23.691015 L 17.775 23.692015 L 17.775 23.693015 L 17.775 23.695015 L 17.775 23.696015 L 17.775 23.698015 L 17.775 23.700015 L 17.775 23.701015 L 17.775 23.702015 L 17.775 23.704015 C 17.775 24.203015 17.41 24.620015 16.932 24.696015 C 15.05 25.188015 12 26.648015 12 30.936015 C 12 31.095015 12.009 31.255015 12.016 31.406015 C 12.218 35.025015 15.765 36.986015 19.002 36.993015 L 19.002 36.993015 Z " style="stroke: none; stroke-linecap: butt; stroke-width: 1; fill: rgb(100%,100%,100%); fill-rule: evenodd;"/>
							</g>
						</g>
					</g>
				</g>
			</g>
			<text x="622" y="330" style="font-family: Helvetica-Bold; font-size: 10px;fill: rgb(9%,16%,27%); stroke:none;" transform="translate(0,660) scale(1,-1)">IAM Identity Center</text>
			<text x="622" y="312.6" style="font-family: Helvetica; font-size: 8.4px;fill: rgb(9%,16%,27%); stroke:none;" transform="translate(0,625) scale(1,-1)">Corporate IdP / MFA / roles</text>
			<path d="M 385,289 L 385,276 Z" style="stroke: rgb(9%,16%,27%); stroke-linecap: butt; stroke-width: 1.1;"/>
			<path d="M 72,276 L 619,276 Z" style="stroke: rgb(9%,16%,27%); stroke-linecap: butt; stroke-width: 1.1;"/>
			<path d="M 72,276 L 72,264 Z" style="stroke: rgb(9%,16%,27%); stroke-linecap: butt; stroke-width: 1.1;"/>
			<polygon points="72 264, 69.82517 268.5022, 74.17483 268.5022" style="stroke: rgb(9%,16%,27%); stroke-linecap: butt; stroke-width: 1; fill: rgb(9%,16%,27%); fill-rule: evenodd;"/>
			<path d="M 228,276 L 228,264 Z" style="stroke: rgb(9%,16%,27%); stroke-linecap: butt; stroke-width: 1.1;"/>
			<polygon points="228 264, 225.8252 268.5022, 230.1748 268.5022" style="stroke: rgb(9%,16%,27%); stroke-linecap: butt; stroke-width: 1; fill: rgb(9%,16%,27%); fill-rule: evenodd;"/>
			<path d="M 384,276 L 384,264 Z" style="stroke: rgb(9%,16%,27%); stroke-linecap: butt; stroke-width: 1.1;"/>
			<polygon points="384 264, 381.8252 268.5022, 386.1748 268.5022" style="stroke: rgb(9%,16%,27%); stroke-linecap: butt; stroke-width: 1; fill: rgb(9%,16%,27%); fill-rule: evenodd;"/>
			<path d="M 619,276 L 619,264 Z" style="stroke: rgb(9%,16%,27%); stroke-linecap: butt; stroke-width: 1.1;"/>
			<polygon points="619 264, 616.8252 268.5022, 621.1748 268.5022" style="stroke: rgb(9%,16%,27%); stroke-linecap: butt; stroke-width: 1; fill: rgb(9%,16%,27%); fill-rule: evenodd;"/>
			<rect x="0" y="112" width="145" height="152" style="stroke: rgb(79%,83%,87%); stroke-linecap: butt; stroke-width: 0.8; fill: rgb(95%,96%,98%); fill-rule: evenodd;"/>
			<text x="10" y="245.5" style="font-family: Helvetica-Bold; font-size: 10.5px;fill: rgb(9%,16%,27%); stroke:none;" transform="translate(0,491) scale(1,-1)">Security OU</text>
			<rect x="156" y="112" width="145" height="152" style="stroke: rgb(79%,83%,87%); stroke-linecap: butt; stroke-width: 0.8; fill: rgb(95%,96%,98%); fill-rule: evenodd;"/>
			<text x="166" y="245.5" style="font-family: Helvetica-Bold; font-size: 10.5px;fill: rgb(9%,16%,27%); stroke:none;" transform="translate(0,491) scale(1,-1)">Infrastructure OU</text>
			<rect x="312" y="112" width="145" height="152" style="stroke: rgb(79%,83%,87%); stroke-linecap: butt; stroke-width: 0.8; fill: rgb(95%,96%,98%); fill-rule: evenodd;"/>
			<text x="322" y="245.5" style="font-family: Helvetica-Bold; font-size: 10.5px;fill: rgb(9%,16%,27%); stroke:none;" transform="translate(0,491) scale(1,-1)">Platform OU</text>
			<rect x="468" y="60" width="302" height="204" style="stroke: rgb(79%,83%,87%); stroke-linecap: butt; stroke-width: 0.8; fill: rgb(95%,96%,98%); fill-rule: evenodd;"/>
			<text x="478" y="245.5" style="font-family: Helvetica-Bold; font-size: 10.5px;fill: rgb(9%,16%,27%); stroke:none;" transform="translate(0,491) scale(1,-1)">Workloads OU</text>
			<rect x="7" y="184" width="131" height="49" style="stroke: rgb(79%,83%,87%); stroke-linecap: butt; stroke-width: 0.8; fill: rgb(100%,100%,100%); fill-rule: evenodd;"/>
			<g transform=" matrix(0.520833,0,0,0.520833,15,197)">
				<g transform="">
					<g transform=" matrix(0.75,0,0,-0.75,0,48)">
						<g transform="">
							<g transform="">
								<rect x="0.0" y="0.0" width="64.0" height="64.0" style="stroke: none; stroke-linecap: butt; stroke-width: 1; fill: rgb(47%,63%,8%); fill-rule: evenodd;"/>
							</g>
							<g transform=" matrix(1,0,0,1,10.9998,10.0002)">
								<g transform="">
									<path d="M 36.759 23.948 L 36.993 22.131 C 39.166 23.385 39.842 24.121 40.037 24.424 C 39.713 24.485 38.832 24.509 36.759 23.948 L 36.759 23.948 Z M 19.5 11 C 9.125 11 2.382 8.488 2 6.696 L 2 6.511 C 2.349 5.392 8.14 2 19.5 2 C 30.84 2 36.632 5.381 37 6.505 L 37 6.616 C 36.724 8.446 29.961 11 19.5 11 L 19.5 11 Z M 34.818 23.362 C 30.053 21.797 23.912 18.979 21.594 17.888 C 21.535 16.786 20.628 15.906 19.512 15.906 C 18.358 15.906 17.418 16.845 17.418 18 C 17.418 19.154 18.358 20.094 19.512 20.094 C 19.969 20.094 20.389 19.942 20.733 19.693 C 23.132 20.822 29.619 23.798 34.558 25.38 L 32.837 38.724 C 32.583 40.352 27.919 42 19.497 42 C 11.072 42 6.405 40.352 6.155 38.751 L 2.435 9.814 C 5.945 11.915 12.749 13 19.5 13 C 26.25 13 33.054 11.915 36.565 9.815 L 34.818 23.362 Z M 39 6.5 C 39 3.431 30.661 0 19.5 0 C 8.339 0 -0 3.431 -0 6.5 L -0 7.043 L 4.174 39.033 C 4.875 43.516 15.123 44 19.497 44 C 23.869 44 34.113 43.516 34.818 39.007 L 36.501 25.947 C 37.778 26.279 38.812 26.456 39.616 26.455 C 40.606 26.455 41.273 26.203 41.697 25.697 C 42.047 25.281 42.185 24.756 42.085 24.221 C 41.857 23 40.403 21.712 37.37 20.044 L 37.27 19.989 L 39 7.044 L 39 6.5 Z " style="stroke: none; stroke-linecap: butt; stroke-width: 1; fill: rgb(100%,100%,100%); fill-rule: evenodd;"/>
								</g>
							</g>
						</g>
					</g>
				</g>
			</g>
			<text x="48" y="216" style="font-family: Helvetica-Bold; font-size: 9px;fill: rgb(9%,16%,27%); stroke:none;" transform="translate(0,432) scale(1,-1)">Log Archive</text>
			<text x="48" y="203" style="font-family: Helvetica; font-size: 8px;fill: rgb(31%,38%,46%); stroke:none;" transform="translate(0,406) scale(1,-1)">CloudTrail / Config</text>
			<text x="48" y="192" style="font-family: Helvetica; font-size: 8px;fill: rgb(31%,38%,46%); stroke:none;" transform="translate(0,384) scale(1,-1)">S3 + protected retention</text>
			<rect x="7" y="124" width="131" height="49" style="stroke: rgb(79%,83%,87%); stroke-linecap: butt; stroke-width: 0.8; fill: rgb(100%,100%,100%); fill-rule: evenodd;"/>
			<g transform=" matrix(0.520833,0,0,0.520833,15,137)">
				<g transform="">
					<g transform=" matrix(0.75,0,0,-0.75,0,48)">
						<g transform="">
							<g transform="">
								<rect x="0.0" y="0.0" width="64.0" height="64.0" style="stroke: none; stroke-linecap: butt; stroke-width: 1; fill: rgb(86%,20%,29%); fill-rule: evenodd;"/>
							</g>
							<g transform="">
								<path d="M 32.759 36.156 L 32.759 28.92 L 34.759 29.92 L 34.76 33.325 C 34.755 33.43 34.62 35.577 32.759 36.156 Z M 28.759 33.364 L 28.759 29.92 L 30.759 28.92 L 30.759 36.156 C 28.958 35.598 28.774 33.58 28.759 33.364 Z M 36.206 28.407 L 32.206 26.407 C 31.925 26.266 31.593 26.266 31.312 26.407 L 27.312 28.407 C 26.973 28.576 26.759 28.923 26.759 29.302 L 26.76 33.413 C 26.844 35.104 27.996 38.302 31.759 38.302 C 35.521 38.302 36.674 35.112 36.759 33.375 L 36.759 29.302 C 36.759 28.923 36.545 28.576 36.206 28.407 Z M 46.184 43.281 C 44.95 43.281 43.947 42.278 43.947 41.045 C 43.947 39.811 44.95 38.808 46.184 38.808 C 47.417 38.808 48.42 39.811 48.42 41.045 C 48.42 42.278 47.417 43.281 46.184 43.281 Z M 31.759 40.045 C 27.693 40.045 24.385 36.703 24.385 32.596 C 24.385 28.489 27.693 25.148 31.759 25.148 C 35.906 25.148 39.281 28.489 39.281 32.596 C 39.281 36.703 35.906 40.045 31.759 40.045 Z M 33.995 49.366 C 33.995 50.599 32.992 51.603 31.759 51.603 C 30.526 51.603 29.523 50.599 29.523 49.366 C 29.523 48.133 30.526 47.13 31.759 47.13 C 32.992 47.13 33.995 48.133 33.995 49.366 Z M 29.523 15.237 C 29.523 14.004 30.526 13 31.759 13 C 32.992 13 33.995 14.004 33.995 15.237 C 33.995 16.47 32.992 17.473 31.759 17.473 C 30.526 17.473 29.523 16.47 29.523 15.237 Z M 17.237 42.347 C 16.003 42.347 15 41.344 15 40.111 C 15 38.878 16.003 37.875 17.237 37.875 C 18.47 37.875 19.473 38.878 19.473 40.111 C 19.473 41.344 18.47 42.347 17.237 42.347 Z M 18.077 26.186 C 16.844 26.186 15.841 25.182 15.841 23.949 C 15.841 22.717 16.844 21.713 18.077 21.713 C 19.311 21.713 20.314 22.717 20.314 23.949 C 20.314 25.182 19.311 26.186 18.077 26.186 Z M 46.281 21.106 C 47.515 21.106 48.518 22.109 48.518 23.342 C 48.518 24.575 47.515 25.578 46.281 25.578 C 45.048 25.578 44.045 24.575 44.045 23.342 C 44.045 22.109 45.048 21.106 46.281 21.106 Z M 46.184 36.808 C 45.081 36.808 44.085 37.241 43.331 37.934 L 40.589 36.117 C 41.031 35.028 41.281 33.841 41.281 32.596 C 41.281 30.961 40.86 29.423 40.12 28.08 L 43.229 26.265 C 44 27.071 45.08 27.578 46.281 27.578 C 48.617 27.578 50.518 25.678 50.518 23.342 C 50.518 21.006 48.617 19.106 46.281 19.106 C 43.946 19.106 42.045 21.006 42.045 23.342 C 42.045 23.757 42.124 24.15 42.236 24.53 L 38.965 26.438 C 37.423 24.664 35.234 23.459 32.759 23.201 L 32.759 19.342 C 34.612 18.889 35.995 17.227 35.995 15.237 C 35.995 12.901 34.095 11 31.759 11 C 29.423 11 27.523 12.901 27.523 15.237 C 27.523 17.227 28.906 18.889 30.759 19.342 L 30.759 23.204 C 28.161 23.483 25.884 24.84 24.361 26.816 L 22.067 25.32 C 22.216 24.887 22.314 24.431 22.314 23.949 C 22.314 21.614 20.413 19.713 18.077 19.713 C 15.741 19.713 13.841 21.614 13.841 23.949 C 13.841 26.285 15.741 28.186 18.077 28.186 C 19.209 28.186 20.234 27.733 20.994 27.008 L 23.315 28.521 C 22.725 29.757 22.385 31.135 22.385 32.596 C 22.385 33.695 22.581 34.746 22.925 35.728 L 20.312 37.215 C 19.538 36.394 18.45 35.875 17.237 35.875 C 14.901 35.875 13 37.775 13 40.111 C 13 42.447 14.901 44.347 17.237 44.347 C 19.572 44.347 21.473 42.447 21.473 40.111 C 21.473 39.708 21.399 39.326 21.293 38.957 L 23.785 37.539 C 25.272 39.967 27.809 41.672 30.759 41.989 L 30.759 45.261 C 28.906 45.714 27.523 47.376 27.523 49.366 C 27.523 51.702 29.423 53.603 31.759 53.603 C 34.095 53.603 35.995 51.702 35.995 49.366 C 35.995 47.376 34.612 45.714 32.759 45.261 L 32.759 41.991 C 35.618 41.694 38.105 40.136 39.643 37.889 L 42.219 39.596 C 42.052 40.05 41.947 40.534 41.947 41.045 C 41.947 43.381 43.848 45.281 46.184 45.281 C 48.52 45.281 50.42 43.381 50.42 41.045 C 50.42 38.708 48.52 36.808 46.184 36.808 Z " style="stroke: none; stroke-linecap: butt; stroke-width: 0; fill: rgb(100%,100%,100%); fill-rule: evenodd;"/>
								<path d="M 32.759 36.156 L 32.759 28.92 L 34.759 29.92 L 34.76 33.325 C 34.755 33.43 34.62 35.577 32.759 36.156 M 28.759 33.364 L 28.759 29.92 L 30.759 28.92 L 30.759 36.156 C 28.958 35.598 28.774 33.58 28.759 33.364 M 36.206 28.407 L 32.206 26.407 C 31.925 26.266 31.593 26.266 31.312 26.407 L 27.312 28.407 C 26.973 28.576 26.759 28.923 26.759 29.302 L 26.76 33.413 C 26.844 35.104 27.996 38.302 31.759 38.302 C 35.521 38.302 36.674 35.112 36.759 33.375 L 36.759 29.302 C 36.759 28.923 36.545 28.576 36.206 28.407 M 46.184 43.281 C 44.95 43.281 43.947 42.278 43.947 41.045 C 43.947 39.811 44.95 38.808 46.184 38.808 C 47.417 38.808 48.42 39.811 48.42 41.045 C 48.42 42.278 47.417 43.281 46.184 43.281 M 31.759 40.045 C 27.693 40.045 24.385 36.703 24.385 32.596 C 24.385 28.489 27.693 25.148 31.759 25.148 C 35.906 25.148 39.281 28.489 39.281 32.596 C 39.281 36.703 35.906 40.045 31.759 40.045 M 33.995 49.366 C 33.995 50.599 32.992 51.603 31.759 51.603 C 30.526 51.603 29.523 50.599 29.523 49.366 C 29.523 48.133 30.526 47.13 31.759 47.13 C 32.992 47.13 33.995 48.133 33.995 49.366 M 29.523 15.237 C 29.523 14.004 30.526 13 31.759 13 C 32.992 13 33.995 14.004 33.995 15.237 C 33.995 16.47 32.992 17.473 31.759 17.473 C 30.526 17.473 29.523 16.47 29.523 15.237 M 17.237 42.347 C 16.003 42.347 15 41.344 15 40.111 C 15 38.878 16.003 37.875 17.237 37.875 C 18.47 37.875 19.473 38.878 19.473 40.111 C 19.473 41.344 18.47 42.347 17.237 42.347 M 18.077 26.186 C 16.844 26.186 15.841 25.182 15.841 23.949 C 15.841 22.717 16.844 21.713 18.077 21.713 C 19.311 21.713 20.314 22.717 20.314 23.949 C 20.314 25.182 19.311 26.186 18.077 26.186 M 46.281 21.106 C 47.515 21.106 48.518 22.109 48.518 23.342 C 48.518 24.575 47.515 25.578 46.281 25.578 C 45.048 25.578 44.045 24.575 44.045 23.342 C 44.045 22.109 45.048 21.106 46.281 21.106 M 46.184 36.808 C 45.081 36.808 44.085 37.241 43.331 37.934 L 40.589 36.117 C 41.031 35.028 41.281 33.841 41.281 32.596 C 41.281 30.961 40.86 29.423 40.12 28.08 L 43.229 26.265 C 44 27.071 45.08 27.578 46.281 27.578 C 48.617 27.578 50.518 25.678 50.518 23.342 C 50.518 21.006 48.617 19.106 46.281 19.106 C 43.946 19.106 42.045 21.006 42.045 23.342 C 42.045 23.757 42.124 24.15 42.236 24.53 L 38.965 26.438 C 37.423 24.664 35.234 23.459 32.759 23.201 L 32.759 19.342 C 34.612 18.889 35.995 17.227 35.995 15.237 C 35.995 12.901 34.095 11 31.759 11 C 29.423 11 27.523 12.901 27.523 15.237 C 27.523 17.227 28.906 18.889 30.759 19.342 L 30.759 23.204 C 28.161 23.483 25.884 24.84 24.361 26.816 L 22.067 25.32 C 22.216 24.887 22.314 24.431 22.314 23.949 C 22.314 21.614 20.413 19.713 18.077 19.713 C 15.741 19.713 13.841 21.614 13.841 23.949 C 13.841 26.285 15.741 28.186 18.077 28.186 C 19.209 28.186 20.234 27.733 20.994 27.008 L 23.315 28.521 C 22.725 29.757 22.385 31.135 22.385 32.596 C 22.385 33.695 22.581 34.746 22.925 35.728 L 20.312 37.215 C 19.538 36.394 18.45 35.875 17.237 35.875 C 14.901 35.875 13 37.775 13 40.111 C 13 42.447 14.901 44.347 17.237 44.347 C 19.572 44.347 21.473 42.447 21.473 40.111 C 21.473 39.708 21.399 39.326 21.293 38.957 L 23.785 37.539 C 25.272 39.967 27.809 41.672 30.759 41.989 L 30.759 45.261 C 28.906 45.714 27.523 47.376 27.523 49.366 C 27.523 51.702 29.423 53.603 31.759 53.603 C 34.095 53.603 35.995 51.702 35.995 49.366 C 35.995 47.376 34.612 45.714 32.759 45.261 L 32.759 41.991 C 35.618 41.694 38.105 40.136 39.643 37.889 L 42.219 39.596 C 42.052 40.05 41.947 40.534 41.947 41.045 C 41.947 43.381 43.848 45.281 46.184 45.281 C 48.52 45.281 50.42 43.381 50.42 41.045 C 50.42 38.708 48.52 36.808 46.184 36.808 " style="stroke: none; stroke-linecap: butt; stroke-width: 1; fill: none; fill-rule: evenodd;"/>
							</g>
						</g>
					</g>
				</g>
			</g>
			<text x="48" y="156" style="font-family: Helvetica-Bold; font-size: 9px;fill: rgb(9%,16%,27%); stroke:none;" transform="translate(0,312) scale(1,-1)">Audit / Security</text>
			<text x="48" y="143" style="font-family: Helvetica; font-size: 8px;fill: rgb(31%,38%,46%); stroke:none;" transform="translate(0,286) scale(1,-1)">GuardDuty</text>
			<text x="48" y="132" style="font-family: Helvetica; font-size: 8px;fill: rgb(31%,38%,46%); stroke:none;" transform="translate(0,264) scale(1,-1)">Security Hub / admin</text>
			<rect x="163" y="184" width="131" height="49" style="stroke: rgb(79%,83%,87%); stroke-linecap: butt; stroke-width: 0.8; fill: rgb(100%,100%,100%); fill-rule: evenodd;"/>
			<g transform=" matrix(0.520833,0,0,0.520833,171,197)">
				<g transform="">
					<g transform=" matrix(0.75,0,0,-0.75,0,48)">
						<g transform="">
							<g transform="">
								<rect x="0.0" y="0.0" width="64.0" height="64.0" style="stroke: none; stroke-linecap: butt; stroke-width: 1; fill: rgb(54%,30%,100%); fill-rule: evenodd;"/>
							</g>
							<g transform="">
								<path d="M 34.885 50.757 C 35.572 50.039 36 49.07 36 48 C 36 46.142 34.721 44.59 33 44.142 L 33 38.92 C 36.059 38.48 38.48 36.059 38.92 33 L 44.143 33 C 44.589 34.72 46.142 36 48 36 C 49.071 36 50.039 35.572 50.757 34.885 C 49.505 43.05 43.051 49.505 34.885 50.757 Z M 13.243 34.885 C 13.961 35.572 14.93 36 16 36 C 17.859 36 19.411 34.72 19.858 33 L 25.08 33 C 25.521 36.059 27.942 38.48 31 38.92 L 31 44.142 C 29.28 44.59 28 46.142 28 48 C 28 49.07 28.428 50.039 29.115 50.757 C 20.949 49.505 14.495 43.05 13.243 34.885 Z M 18 32 C 18 33.103 17.103 34 16 34 C 14.898 34 14 33.103 14 32 C 14 30.897 14.898 30 16 30 C 17.103 30 18 30.897 18 32 Z M 29.115 13.243 C 28.428 13.962 28 14.93 28 16 C 28 17.859 29.28 19.411 31 19.858 L 31 25.08 C 27.942 25.521 25.521 27.941 25.08 31 L 19.858 31 C 19.411 29.28 17.859 28 16 28 C 14.93 28 13.961 28.428 13.243 29.115 C 14.495 20.95 20.949 14.496 29.115 13.243 Z M 32 14 C 33.103 14 34 14.897 34 16 C 34 17.103 33.103 18 32 18 C 30.898 18 30 17.103 30 16 C 30 14.897 30.898 14 32 14 Z M 32 37 C 29.243 37 27 34.757 27 32 C 27 29.243 29.243 27 32 27 C 34.757 27 37 29.243 37 32 C 37 34.757 34.757 37 32 37 Z M 32 50 C 30.898 50 30 49.103 30 48 C 30 46.897 30.898 46 32 46 C 33.103 46 34 46.897 34 48 C 34 49.103 33.103 50 32 50 Z M 50 32 C 50 33.103 49.103 34 48 34 C 46.898 34 46 33.103 46 32 C 46 30.897 46.898 30 48 30 C 49.103 30 50 30.897 50 32 Z M 50.757 29.115 C 50.039 28.428 49.071 28 48 28 C 46.142 28 44.589 29.28 44.143 31 L 38.92 31 C 38.48 27.941 36.059 25.521 33 25.08 L 33 19.858 C 34.721 19.411 36 17.859 36 16 C 36 14.93 35.572 13.962 34.885 13.243 C 43.051 14.496 49.505 20.95 50.757 29.115 Z M 32 11 C 20.421 11 11 20.421 11 32 C 11 43.58 20.421 53 32 53 C 43.579 53 53 43.58 53 32 C 53 20.421 43.579 11 32 11 Z " style="stroke: none; stroke-linecap: butt; stroke-width: 0; fill: rgb(100%,100%,100%); fill-rule: evenodd;"/>
								<path d="M 34.885 50.757 C 35.572 50.039 36 49.07 36 48 C 36 46.142 34.721 44.59 33 44.142 L 33 38.92 C 36.059 38.48 38.48 36.059 38.92 33 L 44.143 33 C 44.589 34.72 46.142 36 48 36 C 49.071 36 50.039 35.572 50.757 34.885 C 49.505 43.05 43.051 49.505 34.885 50.757 M 13.243 34.885 C 13.961 35.572 14.93 36 16 36 C 17.859 36 19.411 34.72 19.858 33 L 25.08 33 C 25.521 36.059 27.942 38.48 31 38.92 L 31 44.142 C 29.28 44.59 28 46.142 28 48 C 28 49.07 28.428 50.039 29.115 50.757 C 20.949 49.505 14.495 43.05 13.243 34.885 M 18 32 C 18 33.103 17.103 34 16 34 C 14.898 34 14 33.103 14 32 C 14 30.897 14.898 30 16 30 C 17.103 30 18 30.897 18 32 M 29.115 13.243 C 28.428 13.962 28 14.93 28 16 C 28 17.859 29.28 19.411 31 19.858 L 31 25.08 C 27.942 25.521 25.521 27.941 25.08 31 L 19.858 31 C 19.411 29.28 17.859 28 16 28 C 14.93 28 13.961 28.428 13.243 29.115 C 14.495 20.95 20.949 14.496 29.115 13.243 M 32 14 C 33.103 14 34 14.897 34 16 C 34 17.103 33.103 18 32 18 C 30.898 18 30 17.103 30 16 C 30 14.897 30.898 14 32 14 M 32 37 C 29.243 37 27 34.757 27 32 C 27 29.243 29.243 27 32 27 C 34.757 27 37 29.243 37 32 C 37 34.757 34.757 37 32 37 M 32 50 C 30.898 50 30 49.103 30 48 C 30 46.897 30.898 46 32 46 C 33.103 46 34 46.897 34 48 C 34 49.103 33.103 50 32 50 M 50 32 C 50 33.103 49.103 34 48 34 C 46.898 34 46 33.103 46 32 C 46 30.897 46.898 30 48 30 C 49.103 30 50 30.897 50 32 M 50.757 29.115 C 50.039 28.428 49.071 28 48 28 C 46.142 28 44.589 29.28 44.143 31 L 38.92 31 C 38.48 27.941 36.059 25.521 33 25.08 L 33 19.858 C 34.721 19.411 36 17.859 36 16 C 36 14.93 35.572 13.962 34.885 13.243 C 43.051 14.496 49.505 20.95 50.757 29.115 M 32 11 C 20.421 11 11 20.421 11 32 C 11 43.58 20.421 53 32 53 C 43.579 53 53 43.58 53 32 C 53 20.421 43.579 11 32 11 " style="stroke: none; stroke-linecap: butt; stroke-width: 1; fill: none; fill-rule: evenodd;"/>
							</g>
						</g>
					</g>
				</g>
			</g>
			<text x="204" y="216" style="font-family: Helvetica-Bold; font-size: 9px;fill: rgb(9%,16%,27%); stroke:none;" transform="translate(0,432) scale(1,-1)">Network account</text>
			<text x="204" y="203" style="font-family: Helvetica; font-size: 8px;fill: rgb(31%,38%,46%); stroke:none;" transform="translate(0,406) scale(1,-1)">TGW / DNS / IPAM</text>
			<text x="204" y="192" style="font-family: Helvetica; font-size: 8px;fill: rgb(31%,38%,46%); stroke:none;" transform="translate(0,384) scale(1,-1)">Firewall / egress</text>
			<rect x="163" y="124" width="131" height="49" style="stroke: rgb(79%,83%,87%); stroke-linecap: butt; stroke-width: 0.8; fill: rgb(100%,100%,100%); fill-rule: evenodd;"/>
			<g transform=" matrix(0.520833,0,0,0.520833,171,137)">
				<g transform="">
					<g transform=" matrix(0.75,0,0,-0.75,0,48)">
						<g transform="">
							<g transform="">
								<rect x="0.0" y="0.0" width="64.0" height="64.0" style="stroke: none; stroke-linecap: butt; stroke-width: 1; fill: rgb(90%,8%,48%); fill-rule: evenodd;"/>
							</g>
							<g transform="">
								<path d="M 42.184 39.381122 C 42.184 37.12827 40.347 35.295458 38.089 35.295458 C 35.831 35.295458 33.995 37.12827 33.995 39.381122 C 33.995 41.633974 35.831 43.466785 38.089 43.466785 C 40.347 43.466785 42.184 41.633974 42.184 39.381122 L 42.184 39.381122 Z M 44.184 39.381122 C 44.184 42.734459 41.45 45.462225 38.089 45.462225 C 34.729 45.462225 31.995 42.734459 31.995 39.381122 C 31.995 36.027785 34.729 33.300018 38.089 33.300018 C 41.45 33.300018 44.184 36.027785 44.184 39.381122 L 44.184 39.381122 Z M 50.743 49.615734 L 45.846 45.215788 C 45.524 45.639819 45.17 46.03791 44.785 46.405071 L 49.671 50.803021 C 49.997 51.095352 50.505 51.071407 50.802 50.744155 C 51.096 50.417901 51.07 49.911059 50.743 49.615734 L 50.743 49.615734 Z M 38.089 47.091502 C 42.351 47.091502 45.818 43.632407 45.818 39.381122 C 45.818 35.129837 42.351 31.670741 38.089 31.670741 C 33.829 31.670741 30.362 35.129837 30.362 39.381122 C 30.362 43.632407 33.829 47.091502 38.089 47.091502 L 38.089 47.091502 Z M 52.081 48.134119 C 53.227 49.16676 53.319 50.935717 52.288 52.080102 C 51.735 52.689709 50.971 53 50.205 53 C 49.538 53 48.868 52.765536 48.333 52.28663 L 43.172 47.641246 C 41.691 48.552164 39.954 49.086942 38.089 49.086942 C 32.725 49.086942 28.362 44.732892 28.362 39.381122 C 28.362 34.029351 32.725 29.675301 38.089 29.675301 C 43.454 29.675301 47.818 34.029351 47.818 39.381122 C 47.818 40.844777 47.482 42.228615 46.897 43.475765 L 52.081 48.134119 Z M 17.697 23.538325 C 17.697 23.939409 17.72 24.338497 17.767 24.722619 C 17.802 25.005972 17.713 25.291319 17.524 25.504832 C 17.375 25.671451 17.177 25.783195 16.961 25.824102 C 15.084 26.307996 12 27.771651 12 32.156631 C 12 35.480036 13.836 37.313846 15.377 38.267666 C 16.049 38.689702 16.64 38.905209 17.138 38.910198 L 26.127 38.910198 L 26.127 40.905638 L 17.127 40.905638 C 16.243 40.896658 15.3 40.577388 14.317 39.958801 C 12.708 38.964075 10 36.621428 10 32.156631 C 10 26.887671 13.526 24.864295 15.71 24.117003 C 15.702 23.924443 15.697 23.730885 15.697 23.538325 C 15.697 19.16033 18.673 14.621702 22.621 12.978457 C 27.232 11.050861 32.119 12.006677 35.687 15.533618 C 36.734 16.567256 37.604 17.808419 38.285 19.236157 C 39.203 18.550723 40.304 18.174582 41.459 18.174582 C 43.874 18.174582 46.587 19.968483 47.122 23.889523 C 50.58 24.721621 54 27.27778 54 32.217492 C 54 35.107887 52.864 37.45652 50.713 39.008972 L 49.541 37.392666 C 51.173 36.214358 52 34.473337 52 32.217492 C 52 27.238869 47.811 25.999701 46.01 25.698389 C 45.743 25.653492 45.505 25.501838 45.351 25.279347 C 45.208 25.071821 45.15 24.8184 45.186 24.570966 C 44.931 21.53191 43.141 20.170023 41.459 20.170023 C 40.402 20.170023 39.409 20.685844 38.734 21.585787 C 38.514 21.879117 38.156 22.029773 37.786 21.974898 C 37.422 21.921021 37.118 21.671591 36.993 21.32638 C 36.359 19.574384 35.446 18.102747 34.281 16.951378 C 32.851 15.539604 28.933 12.506535 23.391 14.81925 C 20.198 16.149211 17.697 19.97846 17.697 23.538325 L 17.697 23.538325 Z " style="stroke: none; stroke-linecap: butt; stroke-width: 1; fill: rgb(100%,100%,100%); fill-rule: evenodd;"/>
							</g>
						</g>
					</g>
				</g>
			</g>
			<text x="204" y="156" style="font-family: Helvetica-Bold; font-size: 9px;fill: rgb(9%,16%,27%); stroke:none;" transform="translate(0,312) scale(1,-1)">Observability</text>
			<text x="204" y="143" style="font-family: Helvetica; font-size: 8px;fill: rgb(31%,38%,46%); stroke:none;" transform="translate(0,286) scale(1,-1)">Cross-account visibility</text>
			<text x="204" y="132" style="font-family: Helvetica; font-size: 8px;fill: rgb(31%,38%,46%); stroke:none;" transform="translate(0,264) scale(1,-1)">SLOs / dashboards</text>
			<rect x="319" y="198" width="131" height="35" style="stroke: rgb(79%,83%,87%); stroke-linecap: butt; stroke-width: 0.8; fill: rgb(100%,100%,100%); fill-rule: evenodd;"/>
			<text x="328" y="216" style="font-family: Helvetica-Bold; font-size: 9px;fill: rgb(9%,16%,27%); stroke:none;" transform="translate(0,432) scale(1,-1)">AFT management</text>
			<text x="328" y="203" style="font-family: Helvetica; font-size: 8px;fill: rgb(31%,38%,46%); stroke:none;" transform="translate(0,406) scale(1,-1)">Account vending</text>
			<rect x="319" y="158" width="131" height="35" style="stroke: rgb(79%,83%,87%); stroke-linecap: butt; stroke-width: 0.8; fill: rgb(100%,100%,100%); fill-rule: evenodd;"/>
			<text x="328" y="176" style="font-family: Helvetica-Bold; font-size: 9px;fill: rgb(9%,16%,27%); stroke:none;" transform="translate(0,352) scale(1,-1)">Delivery account</text>
			<text x="328" y="163" style="font-family: Helvetica; font-size: 8px;fill: rgb(31%,38%,46%); stroke:none;" transform="translate(0,326) scale(1,-1)">CI/CD + artifacts</text>
			<rect x="319" y="118" width="131" height="35" style="stroke: rgb(79%,83%,87%); stroke-linecap: butt; stroke-width: 0.8; fill: rgb(100%,100%,100%); fill-rule: evenodd;"/>
			<text x="328" y="136" style="font-family: Helvetica-Bold; font-size: 9px;fill: rgb(9%,16%,27%); stroke:none;" transform="translate(0,272) scale(1,-1)">AI tooling account</text>
			<text x="328" y="123" style="font-family: Helvetica; font-size: 8px;fill: rgb(31%,38%,46%); stroke:none;" transform="translate(0,246) scale(1,-1)">Sandbox + tool gateway</text>
			<text x="480" y="227" style="font-family: Helvetica; font-size: 9px;fill: rgb(31%,38%,46%); stroke:none;" transform="translate(0,454) scale(1,-1)">Accounts repeated per product / domain</text>
			<rect x="480" y="167" width="133" height="49" style="stroke: rgb(79%,83%,87%); stroke-linecap: butt; stroke-width: 0.8; fill: rgb(100%,100%,100%); fill-rule: evenodd;"/>
			<text x="489" y="199" style="font-family: Helvetica-Bold; font-size: 9px;fill: rgb(9%,16%,27%); stroke:none;" transform="translate(0,398) scale(1,-1)">Development account</text>
			<text x="489" y="186" style="font-family: Helvetica; font-size: 8px;fill: rgb(31%,38%,46%); stroke:none;" transform="translate(0,372) scale(1,-1)">Synthetic data / TTL</text>
			<rect x="625" y="167" width="133" height="49" style="stroke: rgb(79%,83%,87%); stroke-linecap: butt; stroke-width: 0.8; fill: rgb(100%,100%,100%); fill-rule: evenodd;"/>
			<text x="634" y="199" style="font-family: Helvetica-Bold; font-size: 9px;fill: rgb(9%,16%,27%); stroke:none;" transform="translate(0,398) scale(1,-1)">Test account</text>
			<text x="634" y="186" style="font-family: Helvetica; font-size: 8px;fill: rgb(31%,38%,46%); stroke:none;" transform="translate(0,372) scale(1,-1)">Integration / contracts</text>
			<rect x="480" y="107" width="133" height="49" style="stroke: rgb(79%,83%,87%); stroke-linecap: butt; stroke-width: 0.8; fill: rgb(100%,100%,100%); fill-rule: evenodd;"/>
			<text x="489" y="139" style="font-family: Helvetica-Bold; font-size: 9px;fill: rgb(9%,16%,27%); stroke:none;" transform="translate(0,278) scale(1,-1)">Staging account</text>
			<text x="489" y="126" style="font-family: Helvetica; font-size: 8px;fill: rgb(31%,38%,46%); stroke:none;" transform="translate(0,252) scale(1,-1)">Prod-like / release tests</text>
			<rect x="625" y="107" width="133" height="49" style="stroke: rgb(79%,83%,87%); stroke-linecap: butt; stroke-width: 0.8; fill: rgb(100%,100%,100%); fill-rule: evenodd;"/>
			<text x="634" y="139" style="font-family: Helvetica-Bold; font-size: 9px;fill: rgb(9%,16%,27%); stroke:none;" transform="translate(0,278) scale(1,-1)">Production account</text>
			<text x="634" y="126" style="font-family: Helvetica; font-size: 8px;fill: rgb(31%,38%,46%); stroke:none;" transform="translate(0,252) scale(1,-1)">Multi-AZ / controlled DR</text>
			<text x="480" y="82.3" style="font-family: Helvetica; font-size: 8.7px;fill: rgb(9%,16%,27%); stroke:none;" transform="translate(0,164) scale(1,-1)">Child OUs group common controls by environment.</text>
			<text x="480" y="68.3" style="font-family: Helvetica; font-size: 8.7px;fill: rgb(9%,16%,27%); stroke:none;" transform="translate(0,136) scale(1,-1)">No implicit network trust between accounts.</text>
			<rect x="0" y="60" width="145" height="40" style="stroke: rgb(92%,54%,13%); stroke-linecap: butt; stroke-width: 0.8; fill: rgb(100%,100%,100%); fill-rule: evenodd;"/>
			<text x="9" y="85" style="font-family: Helvetica-Bold; font-size: 9px;fill: rgb(9%,16%,27%); stroke:none;" transform="translate(0,170) scale(1,-1)">Sandbox OU</text>
			<text x="9" y="71" style="font-family: Helvetica; font-size: 8px;fill: rgb(31%,38%,46%); stroke:none;" transform="translate(0,142) scale(1,-1)">Experiments / no prod access</text>
			<rect x="156" y="60" width="145" height="40" style="stroke: rgb(92%,54%,13%); stroke-linecap: butt; stroke-width: 0.8; fill: rgb(100%,100%,100%); fill-rule: evenodd;"/>
			<text x="165" y="85" style="font-family: Helvetica-Bold; font-size: 9px;fill: rgb(9%,16%,27%); stroke:none;" transform="translate(0,170) scale(1,-1)">Policy Staging OU</text>
			<text x="165" y="71" style="font-family: Helvetica; font-size: 8px;fill: rgb(31%,38%,46%); stroke:none;" transform="translate(0,142) scale(1,-1)">Test guardrail changes</text>
			<rect x="312" y="60" width="145" height="40" style="stroke: rgb(92%,54%,13%); stroke-linecap: butt; stroke-width: 0.8; fill: rgb(100%,100%,100%); fill-rule: evenodd;"/>
			<text x="321" y="85" style="font-family: Helvetica-Bold; font-size: 9px;fill: rgb(9%,16%,27%); stroke:none;" transform="translate(0,170) scale(1,-1)">Suspended OU</text>
			<text x="321" y="71" style="font-family: Helvetica; font-size: 8px;fill: rgb(31%,38%,46%); stroke:none;" transform="translate(0,142) scale(1,-1)">Restricted / incident isolation</text>
			<rect x="0" y="4" width="770" height="37" style="stroke: rgb(15%,49%,40%); stroke-linecap: butt; stroke-width: 0.8; fill: rgb(94%,96%,96%); fill-rule: evenodd;"/>
			<g transform=" matrix(0.479167,0,0,0.479167,10,12)">
				<g transform="">
					<g transform=" matrix(0.75,0,0,-0.75,0,48)">
						<g transform="">
							<g transform="">
								<rect x="0.0" y="0.0" width="64.0" height="64.0" style="stroke: none; stroke-linecap: butt; stroke-width: 1; fill: rgb(90%,8%,48%); fill-rule: evenodd;"/>
							</g>
							<g transform="">
								<path d="M 20 41.973879 L 23 41.973879 L 23 39.960818 L 20 39.960818 L 20 41.973879 Z M 22 37.947758 L 28 37.947758 L 28 35.934697 L 22 35.934697 L 22 37.947758 Z M 46.96 30.063606 C 46.734 27.729462 45.556 26.013328 43.712 25.392298 C 42.238 24.897085 40.629 25.199045 39.351 26.136124 C 38.666 24.69276 37.688 23.111501 36.702 22.133153 C 33.472 18.925341 29.741 18.175476 25.616 19.907715 C 22.259 21.311825 19.389 25.410416 19.036 29.139611 C 17.19 29.793855 15.008 31.241246 14.074 33.541168 L 15.926 34.302105 C 16.653 32.511487 18.62 31.288553 20.247 30.870843 C 20.69 30.757105 21 30.355499 21 29.895515 C 21 26.819558 23.566 22.945423 26.385 21.76577 C 29.789 20.33549 32.623 20.909212 35.298 23.566452 C 36.359 24.619283 37.535 26.76118 38.06 28.223668 C 38.184 28.571928 38.488 28.822554 38.852 28.877913 C 39.222 28.937298 39.579 28.783299 39.799 28.487379 C 40.616 27.394287 41.929 26.918198 43.078 27.301686 C 44.3 27.712351 45 29.024866 45 30.902045 C 45 31.394239 45.354 31.813962 45.836 31.894484 C 49.926 32.578925 52 34.615136 52 37.947758 C 52 43.780601 46.611 43.982913 46 43.986939 L 29 43.986939 L 29 46 L 46 46 C 48.767 46 54 44.317081 54 37.947758 C 54 33.84212 51.509 31.06611 46.96 30.063606 L 46.96 30.063606 Z M 22 46 L 26 46 L 26 43.986939 L 22 43.986939 L 22 46 Z M 25 41.973879 L 36 41.973879 L 36 39.960818 L 25 39.960818 L 25 41.973879 Z M 11 41.973879 L 18 41.973879 L 18 39.960818 L 11 39.960818 L 11 41.973879 Z M 13 37.947758 L 19 37.947758 L 19 35.934697 L 13 35.934697 L 13 37.947758 Z M 14 46 L 20 46 L 20 43.986939 L 14 43.986939 L 14 46 Z M 10 46 L 12 46 L 12 43.986939 L 10 43.986939 L 10 46 Z " style="stroke: none; stroke-linecap: butt; stroke-width: 1; fill: rgb(100%,100%,100%); fill-rule: evenodd;"/>
							</g>
						</g>
					</g>
				</g>
			</g>
			<g transform=" matrix(0.479167,0,0,0.479167,39,12)">
				<g transform="">
					<g transform=" matrix(0.75,0,0,-0.75,0,48)">
						<g transform="">
							<g transform="">
								<rect x="0.0" y="0.0" width="64.0" height="64.0" style="stroke: none; stroke-linecap: butt; stroke-width: 1; fill: rgb(90%,8%,48%); fill-rule: evenodd;"/>
							</g>
							<g transform="">
								<path d="M 46.046776 38.018391 L 47.936282 38.613149 L 47.023153 41.653701 C 46.892706 42.085609 46.504329 42.367816 46.079388 42.367816 C 46.003294 42.367816 45.9272 42.359724 45.850118 42.340506 L 42.902212 41.624368 L 43.359765 39.656 L 44.318353 39.888644 C 43.658212 39.08754 42.689741 38.586851 41.635294 38.586851 C 39.904894 38.586851 38.344471 39.865379 38.004518 41.559632 L 36.068565 41.154023 C 36.592329 38.537287 38.984847 36.564874 41.635294 36.564874 C 43.3064 36.564874 44.834212 37.364965 45.861976 38.636414 L 46.046776 38.018391 Z M 45.039765 43.177011 L 46.975718 43.581609 C 46.453929 46.198345 44.307482 47.957333 41.635294 47.957333 C 39.986918 47.957333 38.486776 47.281655 37.435294 46.196322 L 37.367106 46.532138 L 35.433129 46.114391 L 36.038918 43.170943 C 36.150588 42.628782 36.663482 42.280828 37.200094 42.388046 L 39.984941 42.957517 L 39.597553 44.941057 L 38.836612 44.785287 C 39.522447 45.493333 40.528471 45.934345 41.635294 45.934345 C 43.368659 45.934345 44.705741 44.852046 45.039765 43.177011 L 45.039765 43.177011 Z M 51.023529 43.370207 L 50.338682 43.329747 C 49.848518 43.303448 49.424565 43.634207 49.318824 44.117701 C 49.120188 45.014897 48.777271 45.865563 48.296 46.645425 C 48.039059 47.063172 48.114165 47.610391 48.473882 47.940138 L 48.985788 48.407448 L 47.536047 49.890299 L 47.082447 49.370391 C 46.760282 49.000184 46.224659 48.924322 45.817506 49.188322 C 45.055577 49.68092 44.223482 50.033931 43.343953 50.237241 C 42.872565 50.346483 42.547435 50.788506 42.575106 51.282115 L 42.613647 51.977012 L 40.564047 51.977012 L 40.602588 51.281103 C 40.631247 50.787494 40.305129 50.345471 39.834729 50.23623 C 38.959153 50.033931 38.127059 49.68092 37.362165 49.18731 C 36.955012 48.922299 36.4184 48.999172 36.098212 49.369379 L 35.643623 49.890299 L 34.193882 48.407448 L 34.702824 47.942161 C 35.063529 47.612414 35.138635 47.065195 34.880706 46.647448 C 34.399435 45.866575 34.055529 45.014897 33.857882 44.117701 C 33.751153 43.634207 33.295577 43.303448 32.838023 43.329747 L 32.154165 43.370207 L 32.154165 41.271356 L 32.841977 41.311816 C 33.295577 41.33508 33.754118 41.007356 33.861835 40.525885 C 34.060471 39.627678 34.405365 38.778023 34.885647 38.000184 C 35.143577 37.582437 35.068471 37.034207 34.707765 36.705471 L 34.192894 36.234115 L 35.643623 34.750253 L 36.102165 35.277241 C 36.425318 35.645425 36.959953 35.721287 37.367106 35.45931 C 38.127059 34.967724 38.957177 34.616736 39.833741 34.414437 C 40.305129 34.305195 40.631247 33.863172 40.602588 33.369563 L 40.564047 32.664552 L 42.613647 32.664552 L 42.575106 33.370575 C 42.547435 33.864184 42.872565 34.305195 43.343953 34.414437 C 44.218541 34.617747 45.048659 34.969747 45.810588 35.461333 C 46.215765 35.724322 46.752376 35.64846 47.074541 35.279264 L 47.535059 34.750253 L 48.985788 36.234115 L 48.470918 36.703448 C 48.1112 37.033195 48.036094 37.580414 48.294024 37.999172 C 48.774306 38.776 49.118212 39.625655 49.317835 40.524874 C 49.423577 41.007356 49.872235 41.33508 50.337694 41.311816 L 51.023529 41.271356 L 51.023529 43.370207 Z M 52.690682 39.464828 C 52.493035 39.274667 52.232141 39.174529 51.955435 39.190713 L 51.024518 39.245333 C 50.854541 38.701149 50.641082 38.173149 50.385129 37.667402 L 51.081835 37.031172 C 51.284424 36.846069 51.404 36.583081 51.411906 36.304919 C 51.419812 36.026759 51.314071 35.757701 51.122353 35.561471 L 48.193224 32.562391 C 48.001506 32.365149 47.7416 32.248828 47.466871 32.267035 C 47.194118 32.275126 46.937176 32.396506 46.757318 32.604874 L 46.132753 33.321011 C 45.638635 33.059035 45.123765 32.840552 44.593082 32.667586 L 44.646447 31.709701 C 44.662259 31.432552 44.565412 31.16046 44.378635 30.958161 C 44.191859 30.755862 43.931953 30.641563 43.660188 30.641563 L 39.518494 30.641563 C 39.245741 30.641563 38.985835 30.755862 38.800047 30.958161 C 38.613271 31.16046 38.516424 31.432552 38.532235 31.709701 L 38.584612 32.666575 C 38.053929 32.838529 37.539059 33.057012 37.044941 33.318989 L 36.421365 32.603862 C 36.239529 32.396506 35.982588 32.275126 35.711812 32.267035 C 35.432141 32.251862 35.177177 32.366161 34.985459 32.562391 L 32.056329 35.561471 C 31.863623 35.757701 31.758871 36.026759 31.766776 36.304919 C 31.774682 36.583081 31.894259 36.846069 32.096847 37.031172 L 32.794541 37.668414 C 32.5376 38.175172 32.324141 38.701149 32.155153 39.245333 L 31.222259 39.190713 C 30.954447 39.173517 30.684659 39.274667 30.488 39.464828 C 30.290353 39.656 30.177694 39.922023 30.177694 40.200184 L 30.177694 44.441379 C 30.177694 44.71954 30.290353 44.985563 30.488 45.176736 C 30.684659 45.366897 30.955435 45.462989 31.222259 45.450851 L 32.150212 45.39623 C 32.3192 45.941425 32.532659 46.469425 32.7896 46.977195 L 32.096847 47.610391 C 31.894259 47.795494 31.774682 48.057471 31.766776 48.335632 C 31.758871 48.614805 31.863623 48.883862 32.056329 49.080092 L 34.985459 52.078161 C 35.177177 52.275402 35.429176 52.386667 35.711812 52.374529 C 35.983576 52.366437 36.240518 52.244046 36.421365 52.03669 L 37.04 51.327632 C 37.537082 51.590621 38.051953 51.810115 38.583624 51.98308 L 38.532235 52.930851 C 38.516424 53.209012 38.613271 53.481103 38.800047 53.683402 C 38.985835 53.885701 39.245741 54 39.518494 54 L 43.660188 54 C 43.931953 54 44.191859 53.885701 44.378635 53.683402 C 44.565412 53.481103 44.662259 53.209012 44.646447 52.930851 L 44.594071 51.985103 C 45.126729 51.811126 45.644565 51.591632 46.140659 51.328644 L 46.757318 52.03669 C 46.937176 52.244046 47.194118 52.366437 47.466871 52.374529 C 47.715906 52.389701 48.001506 52.275402 48.193224 52.078161 L 51.122353 49.080092 C 51.314071 48.883862 51.419812 48.614805 51.411906 48.336644 C 51.404 48.058483 51.284424 47.795494 51.081835 47.610391 L 50.387106 46.975172 C 50.643059 46.468414 50.856518 45.940414 51.025506 45.39623 L 51.955435 45.450851 C 52.231153 45.461977 52.493035 45.366897 52.690682 45.176736 C 52.888329 44.985563 53 44.71954 53 44.441379 L 53 40.200184 C 53 39.922023 52.888329 39.656 52.690682 39.464828 L 52.690682 39.464828 Z M 12.976471 44.390805 L 27.8 44.390805 L 27.8 46.413793 L 11.988235 46.413793 C 11.441741 46.413793 11 45.961655 11 45.402299 L 11 11.011494 C 11 10.453149 11.441741 10 11.988235 10 L 47.564706 10 C 48.1112 10 48.552941 10.453149 48.552941 11.011494 L 48.552941 29.218391 L 46.576471 29.218391 L 46.576471 12.022989 L 12.976471 12.022989 L 12.976471 44.390805 Z M 37.682353 22.137931 L 41.635294 22.137931 L 41.635294 20.114943 L 37.682353 20.114943 L 37.682353 22.137931 Z M 38.670588 18.091954 L 40.647059 18.091954 L 40.647059 16.068966 L 38.670588 16.068966 L 38.670588 18.091954 Z M 42.623529 29.218391 L 42.623529 24.160919 C 43.170023 24.160919 43.611765 23.708782 43.611765 23.149425 L 43.611765 19.103448 C 43.611765 18.545103 43.170023 18.091954 42.623529 18.091954 L 42.623529 15.057471 C 42.623529 14.499126 42.181788 14.045977 41.635294 14.045977 L 37.682353 14.045977 C 37.135859 14.045977 36.694118 14.499126 36.694118 15.057471 L 36.694118 18.091954 C 36.147624 18.091954 35.705882 18.545103 35.705882 19.103448 L 35.705882 23.149425 C 35.705882 23.708782 36.147624 24.160919 36.694118 24.160919 L 36.694118 29.218391 L 38.670588 29.218391 L 38.670588 24.160919 L 40.647059 24.160919 L 40.647059 29.218391 L 42.623529 29.218391 Z M 26.811765 30.229885 L 30.764706 30.229885 L 30.764706 28.206897 L 26.811765 28.206897 L 26.811765 30.229885 Z M 27.8 26.183908 L 29.776471 26.183908 L 29.776471 16.068966 L 27.8 16.068966 L 27.8 26.183908 Z M 31.752941 34.275862 L 31.752941 32.252874 C 32.299435 32.252874 32.741177 31.800736 32.741177 31.241379 L 32.741177 27.195402 C 32.741177 26.637058 32.299435 26.183908 31.752941 26.183908 L 31.752941 15.057471 C 31.752941 14.499126 31.3112 14.045977 30.764706 14.045977 L 26.811765 14.045977 C 26.265271 14.045977 25.823529 14.499126 25.823529 15.057471 L 25.823529 26.183908 C 25.277035 26.183908 24.835294 26.637058 24.835294 27.195402 L 24.835294 31.241379 C 24.835294 31.800736 25.277035 32.252874 25.823529 32.252874 L 25.823529 40.344828 L 27.8 40.344828 L 27.8 32.252874 L 29.776471 32.252874 L 29.776471 34.275862 L 31.752941 34.275862 Z M 16.929412 38.321839 L 18.905882 38.321839 L 18.905882 28.206897 L 16.929412 28.206897 L 16.929412 38.321839 Z M 16.929412 22.137931 L 18.905882 22.137931 L 18.905882 16.068966 L 16.929412 16.068966 L 16.929412 22.137931 Z M 15.941176 26.183908 L 19.894118 26.183908 L 19.894118 24.160919 L 15.941176 24.160919 L 15.941176 26.183908 Z M 15.941176 40.344828 L 19.894118 40.344828 C 20.440612 40.344828 20.882353 39.89269 20.882353 39.333333 L 20.882353 28.206897 C 21.428847 28.206897 21.870588 27.754759 21.870588 27.195402 L 21.870588 23.149425 C 21.870588 22.591081 21.428847 22.137931 20.882353 22.137931 L 20.882353 15.057471 C 20.882353 14.499126 20.440612 14.045977 19.894118 14.045977 L 15.941176 14.045977 C 15.394682 14.045977 14.952941 14.499126 14.952941 15.057471 L 14.952941 22.137931 C 14.406447 22.137931 13.964706 22.591081 13.964706 23.149425 L 13.964706 27.195402 C 13.964706 27.754759 14.406447 28.206897 14.952941 28.206897 L 14.952941 39.333333 C 14.952941 39.89269 15.394682 40.344828 15.941176 40.344828 L 15.941176 40.344828 Z " style="stroke: none; stroke-linecap: butt; stroke-width: 1; fill: rgb(100%,100%,100%); fill-rule: evenodd;"/>
							</g>
						</g>
					</g>
				</g>
			</g>
			<text x="73" y="26" style="font-family: Helvetica-Bold; font-size: 9px;fill: rgb(9%,16%,27%); stroke:none;" transform="translate(0,52) scale(1,-1)">Enrolled accounts: audit / configuration logs -&gt; Log Archive; findings -&gt; Audit; telemetry -&gt; Observability</text>
			<text x="73" y="12" style="font-family: Helvetica; font-size: 8px;fill: rgb(31%,38%,46%); stroke:none;" transform="translate(0,24) scale(1,-1)">Logical governance diagram. Lines show hierarchy; runtime networking is shown separately on page 2.</text>
		</g>
	</g>
</svg>
